<?xml version="1.0" encoding="utf-8"?>
<!-- Generator: Adobe Illustrator 23.1.1, SVG Export Plug-In . SVG Version: 6.00 Build 0)  -->
<svg version="1.1" id="Ebene_1" xmlns="http://www.w3.org/2000/svg" xmlns:xlink="http://www.w3.org/1999/xlink" x="0px" y="0px"
	 viewBox="0 0 127 145.72" style="enable-background:new 0 0 127 145.72;" xml:space="preserve">
<style type="text/css">
	.st0{fill:#DFA628;}
</style>
<g id="Group_77" transform="translate(3 184.518)">
	<g id="Group_1" transform="translate(0 -181.517)">
		<path class="st0" d="M60.5,142.72c-0.52,0-1.04-0.13-1.5-0.4l-60.5-34.93c-0.93-0.54-1.5-1.53-1.5-2.6V34.93
			c0-1.07,0.57-2.06,1.5-2.6L59-2.6c0.93-0.54,2.07-0.54,3,0l60.5,34.93c0.93,0.54,1.5,1.53,1.5,2.6v69.86c0,1.07-0.57,2.06-1.5,2.6
			L62,142.31C61.54,142.58,61.02,142.72,60.5,142.72z M3,103.05l57.5,33.2l57.5-33.2V36.66L60.5,3.46L3,36.66V103.05z"/>
	</g>
</g>
<g>
</g>
<g>
</g>
<g>
</g>
<g>
</g>
<g>
</g>
<g>
</g>
</svg>
