<?xml version="1.0" encoding="utf-8"?>
<!-- Generator: Adobe Illustrator 23.1.1, SVG Export Plug-In . SVG Version: 6.00 Build 0)  -->
<svg version="1.1" id="Ebene_1" xmlns="http://www.w3.org/2000/svg" xmlns:xlink="http://www.w3.org/1999/xlink" x="0px" y="0px"
	 viewBox="0 0 50.53 57.43" style="enable-background:new 0 0 50.53 57.43;" xml:space="preserve">
<style type="text/css">
	.st0{fill:url(#Path_2_2_);}
	.st1{fill:#303340;}
</style>
<linearGradient id="Path_2_2_" gradientUnits="userSpaceOnUse" x1="-145.3763" y1="806.7872" x2="-144.3763" y2="807.7872" gradientTransform="matrix(30.044 0 0 -33.4894 4377.9272 27052.3496)">
	<stop  offset="0" style="stop-color:#DFA628"/>
	<stop  offset="1" style="stop-color:#F8C05D"/>
</linearGradient>
<path id="Path_2_1_" class="st0" d="M39.43,7.75L26.1,0.22c-0.52-0.29-1.14-0.29-1.66,0L11.1,7.75c-0.53,0.3-0.86,0.86-0.86,1.47
	v15.05c0,0.61,0.33,1.17,0.86,1.47l13.33,7.53c0.04,0.02,0.08,0.04,0.11,0.06c0.04,0.02,0.05,0.03,0.08,0.04
	c0.03,0.01,0.08,0.03,0.12,0.04s0.06,0.02,0.09,0.03s0.09,0.02,0.13,0.03c0.03,0,0.06,0.01,0.08,0.02c0.07,0.01,0.14,0.01,0.22,0.01
	c0.07,0,0.14,0,0.22-0.01c0.03,0,0.06-0.01,0.09-0.02s0.08-0.01,0.12-0.02c0.04-0.01,0.07-0.02,0.1-0.03s0.07-0.02,0.11-0.04
	s0.06-0.03,0.09-0.04c0.03-0.02,0.07-0.03,0.1-0.05l13.34-7.53c0.53-0.3,0.86-0.86,0.86-1.47V9.21C40.29,8.6,39.96,8.04,39.43,7.75
	 M20.29,21.35l4.97-2.84l4.97,2.84v5.66l-4.97,2.84l-4.97-2.84V21.35z M25.27,3.62l4.97,2.81v11.03L26.1,15.1
	c-0.52-0.3-1.16-0.3-1.68,0l-4.14,2.36V6.43L25.27,3.62z M13.62,10.2l3.3-1.86v16.81l-3.3-1.86V10.2z M36.91,23.29l-3.3,1.86V8.34
	l3.3,1.86V23.29z"/>
<path id="Path_3_1_" class="st1" d="M2.26,57.42c0.54,0.08,1.04-0.29,1.13-0.82c0.02-0.1,0.02-0.2,0-0.3v-7.06h3.94v7.06
	c-0.08,0.54,0.29,1.04,0.83,1.13c0.1,0.01,0.2,0.01,0.29,0h1.13c0.54,0.08,1.04-0.29,1.13-0.82c0.02-0.1,0.02-0.2,0-0.3V40.71
	c0.08-0.54-0.28-1.04-0.82-1.13c-0.1-0.02-0.2-0.02-0.3,0H8.45c-0.54-0.08-1.04,0.29-1.13,0.83c-0.02,0.1-0.02,0.2,0,0.3v6.44H3.38
	V40.7c0.08-0.54-0.29-1.04-0.82-1.13c-0.1-0.02-0.2-0.02-0.3,0H1.14C0.6,39.5,0.1,39.87,0.01,40.4c-0.02,0.1-0.02,0.2,0,0.3v15.59
	c-0.08,0.54,0.28,1.04,0.82,1.13c0.1,0.02,0.2,0.02,0.3,0H2.26z M19.24,57.42c0.54,0.08,1.04-0.29,1.13-0.82
	c0.02-0.1,0.02-0.2,0-0.3V40.71c0.08-0.54-0.29-1.04-0.82-1.13c-0.1-0.02-0.2-0.02-0.3,0h-1.13c-0.54-0.08-1.04,0.29-1.13,0.83
	c-0.02,0.1-0.02,0.2,0,0.3V56.3c-0.08,0.54,0.29,1.04,0.83,1.13c0.1,0.02,0.2,0.02,0.3,0H19.24z M32.54,57.42
	c0.61,0.05,1.15-0.38,1.24-0.99l3.32-15.62c0.14-0.79-0.22-1.24-0.99-1.24c-0.61-0.04-1.14,0.41-1.21,1.01l-2.59,12.52L29.7,40.59
	c-0.07-0.61-0.6-1.05-1.21-1.01h-1.52c-0.82,0-1.15,0.42-0.99,1.24l3.69,15.62c0.09,0.6,0.63,1.04,1.24,0.99L32.54,57.42z
	 M49.4,57.42c0.76,0,1.13-0.34,1.13-1.04c0-0.7-0.37-1.04-1.13-1.04h-3.32v-6.11h2.53c0.76,0,1.13-0.34,1.13-1.04
	c0-0.7-0.37-1.04-1.13-1.04h-2.53v-5.49h3.32c0.76,0,1.13-0.34,1.13-1.04s-0.37-1.04-1.13-1.04h-5.57
	c-0.54-0.08-1.04,0.29-1.13,0.82c-0.02,0.1-0.02,0.2,0,0.3V56.3c-0.08,0.54,0.29,1.04,0.83,1.12c0.1,0.01,0.2,0.01,0.3,0H49.4z"/>
</svg>
