<?xml version="1.0" encoding="utf-8"?>
<!-- Generator: Adobe Illustrator 23.1.1, SVG Export Plug-In . SVG Version: 6.00 Build 0)  -->
<svg version="1.1" id="Ebene_1" xmlns="http://www.w3.org/2000/svg" xmlns:xlink="http://www.w3.org/1999/xlink" x="0px" y="0px"
	 viewBox="0 0 271.43 359.75" style="enable-background:new 0 0 271.43 359.75;" xml:space="preserve">
<style type="text/css">
	.st0{fill:url(#Path_2_1_);}
	.st1{fill:#303340;}
	.st2{fill:#FFFFFF;}
</style>
<linearGradient id="Path_2_1_" gradientUnits="userSpaceOnUse" x1="-160.2672" y1="598.3055" x2="-159.2672" y2="599.3055" gradientTransform="matrix(161.447 0 0 -179.9648 25928.8965 107853.9219)">
	<stop  offset="0" style="stop-color:#DFA628"/>
	<stop  offset="1" style="stop-color:#F8C05D"/>
</linearGradient>
<path id="Path_2" class="st0" d="M211.07,41.63L139.42,1.17c-2.77-1.57-6.15-1.57-8.92,0L58.84,41.63c-2.85,1.61-4.61,4.63-4.61,7.9
	v80.91c0,3.27,1.76,6.29,4.61,7.9l71.65,40.46c0.2,0.11,0.41,0.2,0.61,0.29c0.15,0.07,0.29,0.15,0.43,0.21
	c0.21,0.09,0.43,0.15,0.64,0.21c0.16,0.05,0.31,0.11,0.47,0.15c0.23,0.06,0.46,0.1,0.69,0.14c0.15,0.02,0.3,0.07,0.45,0.09
	c0.77,0.1,1.55,0.1,2.31,0c0.17-0.02,0.33-0.07,0.5-0.1c0.21-0.04,0.43-0.07,0.65-0.13c0.18-0.05,0.35-0.12,0.53-0.18
	c0.2-0.07,0.39-0.12,0.58-0.2c0.17-0.07,0.33-0.16,0.49-0.24c0.19-0.09,0.38-0.16,0.56-0.27l71.65-40.44
	c2.85-1.61,4.61-4.63,4.61-7.9V49.53C215.68,46.26,213.92,43.24,211.07,41.63 M108.24,114.75l26.72-15.28l26.72,15.28v30.41
	l-26.72,15.28l-26.72-15.28V114.75z M134.96,19.49l26.72,15.08v59.27l-22.22-12.7c-2.79-1.6-6.22-1.6-9.01,0l-22.22,12.7V34.58
	L134.96,19.49z M72.38,54.82l17.72-10v90.32l-17.72-10V54.82z M197.54,125.14l-17.72,10V44.82l17.72,10V125.14z"/>
<path id="Path_3" class="st1" d="M12.09,307.39c4.08,0,6.05-1.96,6.05-6.05v-37.95h21.17v37.95c0,4.08,1.97,6.05,6.05,6.05h6.05
	c4.08,0,6.05-1.96,6.05-6.05v-83.77c0-4.08-1.97-6.05-6.05-6.05h-6.05c-4.08,0-6.05,1.96-6.05,6.05v34.63H18.14v-34.63
	c0-4.08-1.97-6.05-6.05-6.05H6.05c-4.08,0-6.05,1.96-6.05,6.05v83.77c0,4.08,1.97,6.05,6.05,6.05L12.09,307.39z M103.32,307.39
	c4.08,0,6.05-1.96,6.05-6.05v-83.77c0-4.08-1.96-6.05-6.05-6.05h-6.05c-4.08,0-6.05,1.96-6.05,6.05v83.77
	c0,4.08,1.97,6.05,6.05,6.05L103.32,307.39z M174.78,307.39c3.63,0,5.9-1.82,6.65-5.29l17.84-83.92c0.76-4.23-1.21-6.65-5.29-6.65
	c-3.48,0-5.74,1.81-6.5,5.44l-13.91,67.28l-14.06-67.28c-0.76-3.63-3.02-5.44-6.5-5.44h-8.17c-4.38,0-6.2,2.27-5.29,6.65
	l19.81,83.91c0.76,3.48,3.02,5.29,6.65,5.29L174.78,307.39z M265.38,307.39c4.08,0,6.05-1.82,6.05-5.6s-1.96-5.6-6.05-5.6h-17.84
	v-32.8h13.61c4.08,0,6.05-1.81,6.05-5.59c0-3.78-1.96-5.6-6.05-5.6h-13.61v-29.48h17.84c4.08,0,6.05-1.81,6.05-5.59
	c0-3.78-1.96-5.6-6.05-5.6h-29.94c-4.08,0-6.05,1.96-6.05,6.05v83.77c0,4.08,1.96,6.05,6.05,6.05L265.38,307.39z"/>
<path id="Path_4" class="st2" d="M77.62,359.75c1.32-0.19,2.58-0.69,3.66-1.47c1.18-0.59,2.24-1.4,3.13-2.37
	c0.75-1.36,1.14-2.89,1.13-4.44c0-3.57-1.58-5.72-5.06-5.53c2.72-1.13,4.08-2.93,4.08-5.38c0.05-1.5-0.53-2.96-1.59-4.03
	c-1.04-1.09-2.5-1.68-4-1.62c-2.22,0.11-4.39,0.63-6.42,1.54c-0.72,0.28-1.18,0.99-1.14,1.77v19.71c-0.08,0.77,0.48,1.46,1.25,1.54
	c0.06,0.01,0.12,0.01,0.19,0.01C75.02,359.68,76.6,359.75,77.62,359.75 M75.96,337.55c2.91,0,4.08,1.13,4.08,3.95
	c0,2.9-1.17,4.44-4.08,4.59V337.55z M79.85,356.93c-1.34,0.04-2.68-0.25-3.89-0.83v-7.56l0.3-0.11c0.56-0.19,1.15-0.3,1.74-0.34
	c1.81,0,3.02,1.51,3.02,4.36C81.02,355.2,80.11,356.93,79.85,356.93 M106.39,359.38c1.02,0,1.51-0.45,1.51-1.39
	s-0.49-1.39-1.51-1.39h-4.46v-8.17h3.4c1.02,0,1.51-0.45,1.51-1.39s-0.49-1.39-1.51-1.39h-3.4v-7.33h4.46
	c1.02,0,1.51-0.45,1.51-1.39s-0.49-1.39-1.51-1.39h-7.48c-0.72-0.11-1.4,0.38-1.51,1.11c-0.02,0.13-0.02,0.27,0,0.4v20.84
	c-0.11,0.72,0.39,1.4,1.11,1.51c0.13,0.02,0.27,0.02,0.4,0L106.39,359.38z M123.02,359.38c0.72,0.11,1.4-0.38,1.51-1.11
	c0.02-0.13,0.02-0.27,0-0.4v-7.75c0.47-0.2,0.97-0.32,1.47-0.34c0.6,0,1.13,0.57,1.59,1.96c0.22,0.59,0.41,1.19,0.57,1.8
	c0.15,0.49,0.34,1.24,0.6,2.33c0.26,1.09,0.42,1.8,0.53,2.18c0.14,0.8,0.85,1.36,1.66,1.32h1.86c1.1,0,1.59-0.68,1.25-1.73
	l-0.57-1.77l-0.57-1.88l-0.57-1.66c-0.19-0.55-0.42-1.09-0.68-1.62c-0.64-1.24-1.55-2.6-2.57-2.6c1.1-0.34,2.15-0.84,3.1-1.5
	c0.99-1.47,1.49-3.22,1.43-5c0.11-1.85-0.58-3.66-1.9-4.97c-1.24-1.15-2.88-1.77-4.57-1.73c-2.07,0.02-4.12,0.43-6.04,1.21
	c-0.73,0.24-1.2,0.96-1.14,1.73v20.02c-0.11,0.72,0.39,1.4,1.11,1.51c0.13,0.02,0.27,0.02,0.4,0L123.02,359.38z M124.53,337.55
	c2.99,0,4.57,1.84,4.57,4.67c0,2.29-0.41,3.76-1.25,4.36c-1.07,0.46-2.19,0.82-3.32,1.09V337.55z M154.76,359.37
	c1.02,0,1.51-0.45,1.51-1.39s-0.49-1.39-1.51-1.39h-3.93v-19.56c0.11-0.72-0.39-1.4-1.11-1.51c-0.13-0.02-0.27-0.02-0.4,0h-1.51
	c-0.72-0.11-1.4,0.39-1.51,1.11c-0.02,0.13-0.02,0.27,0,0.4v20.84c-0.11,0.72,0.39,1.4,1.11,1.51c0.13,0.02,0.27,0.02,0.4,0
	L154.76,359.37z M171.03,359.37c0.72,0.11,1.4-0.38,1.51-1.11c0.02-0.13,0.02-0.27,0-0.4v-20.84c0.11-0.72-0.39-1.4-1.11-1.51
	c-0.13-0.02-0.27-0.02-0.4,0h-1.51c-0.72-0.11-1.4,0.38-1.51,1.1c-0.02,0.13-0.02,0.27,0,0.4v20.84c-0.11,0.72,0.39,1.4,1.11,1.51
	c0.13,0.02,0.27,0.02,0.4,0L171.03,359.37z M186.63,359.37c0.94,0,1.4-0.49,1.4-1.51v-13.5l6.72,13.92c0.31,0.7,1.01,1.13,1.77,1.09
	h0.45c0.72,0.11,1.4-0.38,1.51-1.11c0.02-0.13,0.02-0.27,0-0.4v-20.84c0-1.02-0.45-1.51-1.4-1.51c-0.95,0-1.43,0.49-1.43,1.51v13.81
	l-6.91-14.22c-0.31-0.7-1.01-1.13-1.77-1.09h-0.26c-0.72-0.11-1.4,0.38-1.51,1.11c-0.02,0.13-0.02,0.27,0,0.4v20.84
	C185.19,358.89,185.68,359.38,186.63,359.37"/>
<g>
</g>
<g>
</g>
<g>
</g>
<g>
</g>
<g>
</g>
<g>
</g>
</svg>
