<?xml version="1.0" encoding="utf-8"?>
<!-- Generator: Adobe Illustrator 23.1.1, SVG Export Plug-In . SVG Version: 6.00 Build 0)  -->
<svg version="1.1" id="Ebene_1" xmlns="http://www.w3.org/2000/svg" xmlns:xlink="http://www.w3.org/1999/xlink" x="0px" y="0px"
	 viewBox="0 0 25.29 28.53" style="enable-background:new 0 0 25.29 28.53;" xml:space="preserve">
<style type="text/css">
	.st0{fill:#FFFFFF;}
	.st1{fill:#DFA628;}
</style>
<g id="Group_70" transform="translate(-691 -5464)">
	<g>
		<path id="Path_206_1_" class="st0" d="M692.5,5484.65l11.15,6.38l11.15-6.38v-12.77l-11.15-6.38l-11.15,6.38V5484.65z"/>
		<path class="st1" d="M703.65,5492.53c-0.26,0-0.51-0.07-0.75-0.2l-11.15-6.38c-0.47-0.27-0.75-0.76-0.75-1.3v-12.77
			c0-0.54,0.29-1.04,0.75-1.3l11.15-6.38c0.46-0.26,1.03-0.26,1.49,0l11.15,6.38c0.47,0.27,0.75,0.76,0.75,1.3v12.77
			c0,0.54-0.29,1.03-0.75,1.3l-11.15,6.38C704.16,5492.46,703.9,5492.53,703.65,5492.53z M694,5483.78l9.65,5.52l9.65-5.52v-11.03
			l-9.65-5.52l-9.65,5.52V5483.78z"/>
	</g>
</g>
<g>
</g>
<g>
</g>
<g>
</g>
<g>
</g>
<g>
</g>
<g>
</g>
</svg>
