<?xml version="1.0" encoding="utf-8"?>
<!-- Generator: Adobe Illustrator 23.1.1, SVG Export Plug-In . SVG Version: 6.00 Build 0)  -->
<svg version="1.1" id="Ebene_1" xmlns="http://www.w3.org/2000/svg" xmlns:xlink="http://www.w3.org/1999/xlink" x="0px" y="0px"
	 viewBox="0 0 96.32 110.29" style="enable-background:new 0 0 96.32 110.29;" xml:space="preserve">
<style type="text/css">
	.st0{fill:#DFA628;}
	.st1{fill:none;}
</style>
<g id="Group_795" transform="translate(2665 -2002)">
	<g id="Group_794" transform="translate(-2662 2186.517)">
		<g id="Group_1" transform="translate(0 -181.517)">
			<path class="st0" d="M45.16,107.29c-0.52,0-1.04-0.13-1.5-0.4L-1.5,80.82c-0.93-0.54-1.5-1.53-1.5-2.6V26.07
				c0-1.07,0.57-2.06,1.5-2.6L43.66-2.6c0.93-0.54,2.07-0.54,3,0l45.16,26.07c0.93,0.54,1.5,1.53,1.5,2.6v52.15
				c0,1.07-0.57,2.06-1.5,2.6l-45.16,26.07C46.2,107.16,45.68,107.29,45.16,107.29z M3,76.49l42.16,24.34l42.16-24.34V27.8
				L45.16,3.46L3,27.8V76.49z"/>
		</g>
	</g>
	<g id="Polygon_2" transform="translate(-2599 2044) rotate(90)">
		<path class="st1" d="M13,0l13,26H0L13,0z"/>
		<path class="st0" d="M13,0L0,26h26L13,0 M13-6c2.27,0,4.35,1.28,5.37,3.32l13,26c0.93,1.86,0.83,4.07-0.26,5.84
			C30.01,30.92,28.08,32,26,32H0c-2.08,0-4.01-1.08-5.1-2.85c-1.09-1.77-1.19-3.98-0.26-5.84l13-26C8.65-4.72,10.73-6,13-6z"/>
	</g>
</g>
<g>
</g>
<g>
</g>
<g>
</g>
<g>
</g>
<g>
</g>
<g>
</g>
</svg>
