<?xml version="1.0" encoding="utf-8"?>
<!-- Generator: Adobe Illustrator 23.1.1, SVG Export Plug-In . SVG Version: 6.00 Build 0)  -->
<svg version="1.1" id="Ebene_1" xmlns="http://www.w3.org/2000/svg" xmlns:xlink="http://www.w3.org/1999/xlink" x="0px" y="0px"
	 viewBox="0 0 271.73 21.85" style="enable-background:new 0 0 271.73 21.85;" xml:space="preserve">
<style type="text/css">
	.st0{fill:#303D4F;}
	.st1{fill:#C09F1E;}
	.st2{fill:#C1A01F;}
</style>
<g>
	<path id="Path_1" class="st0" d="M0,0.45v5.52h2.83V2.72h4.78v16.3H5.69v2.38h6.78v-2.38h-2.16V2.72h5.53v3.26h2.83V0.45H0z"/>
	<path id="Path_3" class="st0" d="M89.54,0.45v2.39h2.09l-5.17,16.09L80.77,0.45h-4.13l-5.35,18.48L66.22,2.84h1.82V0.45h-6.8v2.39
		h1.85l6.11,18.55h4.19l5.24-18.25l5.68,18.25h4.23l5.98-18.55h1.82V0.45H89.54z"/>
	<path id="Path_4" class="st0" d="M108.35,0.42v2.42h1.99v16.18h-1.93v2.38h6.8v-2.38h-2.15V4.03l9.74,17.36h3.54V2.84h1.78V0.45
		h-6.8v2.39h2.35v14.12l-0.11,0.66l-9.56-17.2L108.35,0.42z"/>
	<path id="Path_7" class="st1" d="M206.47,2.6l3.26,9.37h-6.47L206.47,2.6z M204.56,0.45l-6.52,18.57h-1.82v2.38h6.8v-2.38h-2.15
		l1.62-4.75h8.05l1.66,4.75h-1.74v2.38h6.8v-2.38h-2.1l-6.51-18.57H204.56z"/>
	<path id="Path_5" class="st1" d="M150.98,4.32c-0.26-0.37-0.59-0.69-0.97-0.93c-0.36-0.22-0.76-0.39-1.17-0.5
		c-0.41-0.11-0.84-0.17-1.27-0.17c-0.62-0.01-1.24,0.07-1.84,0.24c-0.47,0.13-0.92,0.36-1.3,0.66c-0.33,0.26-0.6,0.59-0.78,0.97
		c-0.17,0.36-0.26,0.76-0.26,1.16c-0.02,0.51,0.09,1.02,0.32,1.47c0.2,0.36,0.48,0.67,0.82,0.9c0.34,0.23,0.71,0.41,1.1,0.53
		c0.4,0.13,0.78,0.26,1.15,0.39l2.79,0.91c0.76,0.24,1.51,0.54,2.22,0.91c0.6,0.31,1.14,0.72,1.61,1.21
		c0.43,0.47,0.77,1.01,0.99,1.61c0.24,0.68,0.35,1.39,0.34,2.11c0.01,0.83-0.17,1.65-0.53,2.4c-0.35,0.74-0.86,1.39-1.49,1.92
		c-0.67,0.56-1.44,1-2.27,1.28c-0.93,0.32-1.91,0.47-2.89,0.46c-0.93,0.02-1.87-0.1-2.76-0.37c-0.7-0.21-1.35-0.54-1.93-0.98
		c-0.5-0.39-0.92-0.86-1.25-1.4c-0.31-0.51-0.55-1.05-0.73-1.62h-1.05v-2.37h3.48c-0.05,0.74,0.06,1.48,0.32,2.17
		c0.21,0.42,0.52,0.78,0.9,1.06c0.42,0.3,0.89,0.51,1.38,0.64c0.58,0.15,1.17,0.22,1.77,0.22c0.57,0.01,1.14-0.07,1.69-0.22
		c0.47-0.13,0.9-0.35,1.29-0.64c0.35-0.27,0.63-0.62,0.82-1.02c0.19-0.43,0.29-0.89,0.28-1.36c0.02-0.5-0.11-0.99-0.35-1.43
		c-0.23-0.39-0.54-0.73-0.9-1c-0.37-0.28-0.78-0.5-1.21-0.68c-0.44-0.18-0.86-0.33-1.26-0.46L145,11.52
		c-0.63-0.19-1.24-0.45-1.82-0.77c-0.53-0.3-1.01-0.69-1.41-1.14c-0.4-0.47-0.7-1-0.9-1.58c-0.22-0.67-0.33-1.38-0.32-2.09
		c-0.01-0.78,0.15-1.54,0.47-2.25c0.32-0.71,0.79-1.33,1.38-1.84c0.66-0.55,1.41-0.97,2.23-1.24c0.97-0.31,1.99-0.47,3.02-0.45
		c0.7-0.01,1.39,0.08,2.07,0.26c0.6,0.16,1.18,0.41,1.71,0.74c0.51,0.31,0.96,0.7,1.35,1.15c0.39,0.45,0.72,0.94,0.99,1.47h1.04
		v2.37h-3.38C151.47,5.5,151.31,4.86,150.98,4.32"/>
	<path id="Path_9" class="st2" d="M256.73,0.45v2.39h1.99v16.18h-1.99v2.38h15v-5.91h-2.83v3.54h-7.47v-7.1h6.29V9.54h-6.29v-6.7
		h7.47v3.54h2.83V0.45H256.73z"/>
	<path id="Path_2" class="st0" d="M40.18,19.23c1.03,0.01,2.05-0.22,2.98-0.68c0.88-0.44,1.65-1.06,2.27-1.82
		c0.64-0.79,1.13-1.68,1.45-2.65c0.7-2.11,0.68-4.39-0.05-6.49c-0.33-1-0.86-1.91-1.56-2.7c-0.65-0.72-1.44-1.3-2.33-1.71
		c-0.87-0.4-1.81-0.6-2.76-0.6c-1.03-0.01-2.06,0.22-2.98,0.68c-0.88,0.44-1.65,1.06-2.28,1.82c-0.64,0.79-1.13,1.69-1.45,2.65
		c-0.34,1.02-0.52,2.09-0.51,3.17c-0.02,1.17,0.17,2.34,0.57,3.45c0.33,0.93,0.84,1.78,1.5,2.51c0.64,0.68,1.39,1.25,2.22,1.68
		C38.16,19.02,39.17,19.25,40.18,19.23 M40.18,21.8c-1.36,0.02-2.72-0.26-3.97-0.81c-2.5-1.14-4.43-3.24-5.35-5.84
		c-0.49-1.36-0.73-2.8-0.73-4.24c-0.01-1.45,0.24-2.89,0.74-4.26c0.46-1.27,1.17-2.45,2.07-3.46c0.89-0.98,1.97-1.77,3.17-2.32
		C40-0.88,44.57,0.05,47.44,3.21c0.9,1.01,1.6,2.19,2.06,3.46c0.49,1.36,0.74,2.8,0.73,4.26c0.01,1.45-0.24,2.89-0.74,4.25
		c-0.46,1.27-1.17,2.45-2.07,3.46c-0.89,0.99-1.97,1.78-3.18,2.33C42.96,21.53,41.58,21.82,40.18,21.8"/>
	<path id="Path_6" class="st1" d="M182.17,5.97c-0.59-1.02-1.43-1.87-2.45-2.47c-1.03-0.6-2.21-0.91-3.4-0.9
		c-1.02-0.01-2.02,0.22-2.93,0.68c-0.87,0.44-1.65,1.06-2.27,1.82c-0.65,0.78-1.15,1.68-1.48,2.64c-0.35,1.01-0.53,2.08-0.52,3.16
		c-0.02,1.18,0.17,2.36,0.58,3.47c0.34,0.93,0.85,1.78,1.51,2.51c0.64,0.68,1.39,1.25,2.22,1.67c0.89,0.46,1.88,0.69,2.89,0.67
		c1.34,0.03,2.67-0.34,3.8-1.06c1.22-0.88,2.18-2.08,2.76-3.48l2.43,1.15c-0.4,1.07-1,2.05-1.78,2.88c-0.87,0.95-1.93,1.71-3.1,2.24
		c-1.28,0.58-2.68,0.87-4.08,0.85c-1.36,0.02-2.7-0.26-3.94-0.81c-1.21-0.55-2.3-1.33-3.2-2.3c-0.95-1.02-1.68-2.22-2.14-3.54
		c-0.49-1.37-0.74-2.81-0.74-4.27c-0.01-1.44,0.24-2.87,0.74-4.23c0.46-1.28,1.17-2.45,2.07-3.46c0.89-0.98,1.97-1.77,3.18-2.32
		c1.26-0.57,2.62-0.86,4-0.85c1.13-0.03,2.25,0.16,3.32,0.55c0.85,0.32,1.64,0.76,2.37,1.3c0.62,0.48,1.19,1.03,1.68,1.64h1.46v2.46
		H182.17z"/>
	<path id="Path_8" class="st1" d="M233.96,2.84v6.59h3.77c0.49,0.01,0.98-0.07,1.44-0.22c0.42-0.13,0.8-0.34,1.13-0.63
		c0.32-0.28,0.58-0.64,0.75-1.04c0.19-0.46,0.28-0.94,0.27-1.44c0.05-0.9-0.29-1.78-0.94-2.41c-0.86-0.65-1.93-0.96-3-0.86
		L233.96,2.84z M229.26,0.45h8.47c0.88-0.01,1.75,0.11,2.59,0.37c0.75,0.22,1.44,0.59,2.04,1.08c0.58,0.48,1.04,1.09,1.34,1.77
		c0.33,0.77,0.49,1.61,0.48,2.44c0,0.75-0.16,1.48-0.47,2.16c-0.31,0.68-0.77,1.28-1.33,1.78c-0.6,0.52-1.3,0.93-2.05,1.2
		c-0.85,0.3-1.75,0.45-2.66,0.44h-3.72v7.32h2.1v2.38h-6.8v-2.37h1.99V2.84h-1.99V0.45z"/>
</g>
<g>
</g>
<g>
</g>
<g>
</g>
<g>
</g>
<g>
</g>
<g>
</g>
</svg>
